<?xml version="1.0" encoding="UTF-8"?>
<svg id="Layer_1" data-name="Layer 1" xmlns="http://www.w3.org/2000/svg" viewBox="0 0 513.66 788.08">
  <defs>
    <style>
      .cls-1 {
        fill: #d5ad93;
      }

      .cls-2 {
        fill: #e81324;
      }
    </style>
  </defs>
  <path class="cls-1" d="M341.02,235.22c3.02,9.52,9.53,29.25,27,47,8.17,8.3,16.31,13.7,22,17,10.75,5.84,25.24,14.58,41,27,20.86,16.44,48,37.83,65,73,13.17,27.26,14.45,51.84,17,101,1.65,31.82-.34,54.95-1,62-1.68,17.86-4.17,42.82-14,73-6.75,20.73-15.13,46.45-35,71-22.46,27.74-48.16,39.83-74,52-18.59,8.76-81.37,37.38-160,28-40.78-4.86-65.48-17.52-72-21-4.71-2.51-22.03-12.03-41-30-46.06-43.63-88.88-124.83-106-216C-.54,462.98-.03,409.79,.02,406.22c.17-12.6,.94-35.1,2-66,.95-27.57,1.42-41.35,2-54,4.35-94.58,12.47-114.03,17-172,.32-4.04,1.08-14.23,5-27,5.07-16.52,12.58-28.1,16-33,12.8-18.35,27.55-28.15,35-33,2.42-1.57,15.07-9.7,31-15,39.12-13.02,77.53-2.2,90,2,76.95,25.94,108.53,114.84,112,125,5.75,16.85,13.43,46.65,31,102Z"/>
  <path class="cls-2" d="M292.02,284.22c4.29,11.57,8.93,20.29,16,30,12.42,17.06,26.09,26.43,30,29,13.79,9.08,16.33,6.19,40,17,15.22,6.95,29.74,13.71,45,27,6.62,5.76,17.29,15.22,26,31,5.83,10.55,8.09,19.07,11,30,6.24,23.44,6.73,42.29,7,56,.4,19.94-1.47,34.14-2,38-1.61,11.65-3.73,20.07-6,29-9.78,38.43-14.67,57.65-16,61-5.41,13.64-16.78,42.29-45,64-16.23,12.49-31.33,17.68-45.83,22.39-24.11,7.84-43.25,9.3-76.17,11.61-27.5,1.93-41.24,2.89-52,1-36.58-6.43-60.82-28-70.56-36.89-16.15-14.74-25.46-31.06-43.44-63.11-25.45-45.38-42.75-76.22-51-120-3.14-16.66-3.43-33.77-4-68-1.16-68.81,4.24-86.51,6-164,1.32-58.25-1.43-61.65,2-98,8.75-92.76,30.31-109.55,39-115,21.77-13.66,47.49-9.28,55-8,31,5.28,49.93,25.87,62,39,15.18,16.51,22.63,32.3,29,46,3.57,7.67,6.36,14.75,23,76,1.07,3.94,8.49,31.27,21,65Z"/>
  <circle cx="96.02" cy="263.22" r="15"/>
  <circle cx="242.02" cy="263.22" r="15"/>
  <path d="M346.26,437.25c-1.02-5.31-7.39-8.33-12.3-6.98-5.55,1.53-8,6.98-6.98,12.3,5.45,28.47,4.3,58.09-3.1,86.09-6.66,25.18-18.15,53.91-39.55,70.2-20.57,15.66-49.49,16.64-71.94,4.54-24.01-12.94-37.01-36.31-43.47-62.05-3.96-15.78-5.96-31.97-8.15-48.07-2.55-18.76-5.11-37.52-7.66-56.28-.73-5.36-7.59-8.28-12.3-6.98-5.78,1.59-7.72,6.93-6.98,12.3l7.39,54.31c2.17,15.91,4.09,31.92,7.81,47.57,7.14,30.03,22.29,57.68,49.21,74.15,26.32,16.1,59.97,17.84,87.37,3.34,27.88-14.75,43.67-45.42,53.46-74.12,12.07-35.39,14.23-73.66,7.21-110.31Z"/>
</svg>